<?xml version="1.0" encoding="UTF-8"?>
<svg width="400" height="100" viewBox="0 0 400 100" xmlns="http://www.w3.org/2000/svg">
  <!-- Credit Score Icon -->
  <g transform="translate(0,0)">
    <circle cx="50" cy="50" r="40" 
            fill="none" 
            stroke="#1976D2" 
            stroke-width="4"/>
    <path d="M 50,50 L 50,20" 
          stroke="#D32F2F" 
          stroke-width="4" 
          transform="rotate(45,50,50)"/>
    <circle cx="50" cy="50" r="5" fill="#1976D2"/>
    <text x="35" y="65" 
          font-family="Poppins" 
          font-size="12" 
          fill="#1976D2">850</text>
  </g>

  <!-- Collateral Reduction Icon -->
  <g transform="translate(100,0)">
    <rect x="30" y="20" width="40" height="40" 
          fill="none" 
          stroke="#388E3C" 
          stroke-width="4"/>
    <path d="M 50,30 L 50,50 L 35,40 M 50,50 L 65,40" 
          stroke="#388E3C" 
          stroke-width="4" 
          fill="none"/>
    <text x="42" y="75" 
          font-family="Poppins" 
          font-size="16" 
          fill="#388E3C">↓</text>
  </g>

  <!-- Cross-chain Icon -->
  <g transform="translate(200,0)">
    <path d="M 30,50 C 30,35 70,65 70,50 C 70,35 30,65 30,50" 
          fill="none" 
          stroke="#7B1FA2" 
          stroke-width="4"/>
    <circle cx="30" cy="50" r="8" fill="#1976D2"/>
    <circle cx="70" cy="50" r="8" fill="#7B1FA2"/>
  </g>

  <!-- Rewards Icon -->
  <g transform="translate(300,0)">
    <path d="M 50,20 L 60,40 L 80,45 L 65,60 L 70,80 L 50,70 L 30,80 L 35,60 L 20,45 L 40,40 Z" 
          fill="#F57C00" 
          stroke="#F57C00" 
          stroke-width="2"/>
    <!-- Sparkles -->
    <circle cx="75" cy="25" r="2" fill="#FFD700"/>
    <circle cx="80" cy="35" r="2" fill="#FFD700"/>
    <circle cx="25" cy="25" r="2" fill="#FFD700"/>
    <circle cx="20" cy="35" r="2" fill="#FFD700"/>
  </g>
</svg> 